<?xml version="1.0" standalone="no"?>
<!DOCTYPE svg PUBLIC "-//W3C//DTD SVG 20010904//EN"
 "http://www.w3.org/TR/2001/REC-SVG-20010904/DTD/svg10.dtd">
<svg version="1.0" xmlns="http://www.w3.org/2000/svg"
 width="512.000000pt" height="512.000000pt" viewBox="0 0 512.000000 512.000000"
 preserveAspectRatio="xMidYMid meet">
<metadata>
Created by potrace 1.14, written by Peter Selinger 2001-2017
</metadata>
<g transform="translate(0.000000,512.000000) scale(0.100000,-0.100000)"
fill="#000000" stroke="none">
<path d="M1830 4936 c0 -2 8 -10 18 -17 15 -13 16 -12 3 4 -13 16 -21 21 -21
13z"/>
<path d="M1416 4922 c-2 -4 -1 -14 4 -22 7 -11 9 -9 7 8 -1 24 -3 26 -11 14z"/>
<path d="M1607 4919 c7 -7 15 -10 18 -7 3 3 -2 9 -12 12 -14 6 -15 5 -6 -5z"/>
<path d="M1719 4913 c-13 -16 -12 -17 4 -4 9 7 17 15 17 17 0 8 -8 3 -21 -13z"/>
<path d="M1941 4914 c0 -11 3 -14 6 -6 3 7 2 16 -1 19 -3 4 -6 -2 -5 -13z"/>
<path d="M2259 4913 c-13 -16 -12 -17 4 -4 9 7 17 15 17 17 0 8 -8 3 -21 -13z"/>
<path d="M2376 4922 c-2 -4 -1 -14 4 -22 7 -11 9 -9 7 8 -1 24 -3 26 -11 14z"/>
<path d="M2544 4914 c-10 -8 -13 -13 -6 -9 6 3 18 3 25 -2 17 -11 36 -12 42
-3 2 4 -5 7 -18 6 -13 -1 -21 4 -19 12 3 16 0 15 -24 -4z"/>
<path d="M2985 4919 c-4 -6 -5 -12 -2 -15 2 -3 7 2 10 11 7 17 1 20 -8 4z"/>
<path d="M3019 4913 c-13 -16 -12 -17 4 -4 16 13 21 21 13 21 -2 0 -10 -8 -17
-17z"/>
<path d="M3310 4921 c0 -6 4 -13 10 -16 6 -3 7 1 4 9 -7 18 -14 21 -14 7z"/>
<path d="M2089 4903 c-13 -16 -12 -17 4 -4 9 7 17 15 17 17 0 8 -8 3 -21 -13z"/>
<path d="M2320 4911 c0 -6 -9 -8 -20 -6 -11 2 -22 0 -25 -5 -3 -5 4 -7 15 -5
11 2 20 0 20 -5 0 -14 -61 -5 -72 11 -8 12 -9 12 -5 -1 4 -14 -7 -16 -78 -14
-46 1 -89 5 -96 10 -7 4 -10 3 -6 -2 3 -6 -5 -10 -18 -10 -14 0 -21 4 -17 11
3 5 -2 4 -11 -4 -15 -12 -17 -11 -18 5 0 15 -2 16 -7 4 -4 -8 -19 -16 -35 -17
-15 -1 -25 2 -22 7 3 4 -2 10 -10 14 -8 3 -17 0 -21 -6 -4 -7 -3 -8 4 -4 7 4
12 3 12 -3 0 -15 -60 -7 -71 10 -7 12 -9 12 -9 -1 0 -16 -52 -22 -66 -8 -4 4
3 5 15 3 12 -2 19 0 17 4 -7 10 -53 8 -63 -3 -4 -5 -2 -6 5 -2 6 4 12 2 12 -4
0 -7 -8 -9 -22 -4 -13 4 -27 6 -33 6 -44 -7 -93 -7 -107 0 -11 5 -18 5 -18 -1
0 -9 -37 -7 -67 4 -7 2 -13 1 -13 -4 0 -12 -68 -5 -85 9 -12 10 -16 9 -21 -4
-3 -9 -10 -13 -15 -10 -5 3 -7 9 -5 13 3 4 -1 8 -9 8 -11 0 -12 -4 -4 -14 8
-9 8 -13 0 -14 -6 -1 -17 -2 -23 -3 -7 -1 -19 2 -26 7 -9 7 -11 6 -7 -4 3 -9
-1 -15 -12 -16 -19 -1 -53 -8 -85 -19 -15 -4 -19 -3 -14 7 4 8 1 6 -7 -4 -12
-14 -16 -15 -26 -4 -6 8 -7 18 -3 22 4 5 1 5 -6 0 -10 -5 -11 -10 -3 -18 15
-15 14 -32 -2 -19 -9 8 -17 8 -27 0 -12 -8 -12 -9 3 -4 9 3 17 0 17 -6 0 -7
-12 -8 -32 -4 -21 4 -28 3 -19 -3 11 -7 10 -11 -7 -20 -26 -14 -45 -14 -37 -1
4 6 12 7 18 4 8 -5 8 -3 0 6 -15 16 -25 8 -27 -20 0 -11 -5 -20 -10 -19 -5 0
-12 -3 -15 -8 -3 -4 -18 -18 -33 -31 -19 -17 -28 -20 -33 -11 -6 8 -4 10 5 4
9 -5 11 -4 6 4 -4 6 -12 9 -17 5 -5 -3 -7 -10 -3 -15 8 -14 -27 -51 -43 -45
-7 3 -13 1 -13 -4 0 -6 5 -10 10 -10 6 0 0 -10 -12 -22 -13 -13 -29 -23 -37
-23 -8 0 -15 -8 -17 -18 -1 -9 2 -15 7 -11 5 3 6 10 3 16 -4 7 -2 8 4 4 7 -4
0 -25 -21 -60 -20 -34 -36 -51 -42 -46 -7 6 -11 2 -11 -10 0 -10 4 -16 9 -13
16 10 -5 -41 -22 -54 -9 -6 -13 -15 -8 -19 4 -4 7 -2 7 4 0 7 4 12 10 12 5 0
7 -7 4 -15 -4 -8 -14 -15 -23 -15 -9 0 -12 -3 -6 -8 18 -13 17 -35 -1 -28 -13
5 -14 3 -7 -6 15 -19 12 -50 -6 -78 -10 -14 -16 -31 -15 -37 1 -7 2 -18 3 -24
0 -5 5 -8 9 -5 12 7 9 -77 -2 -86 -12 -8 -17 -40 -5 -32 10 6 10 10 13 -123 1
-57 -1 -103 -5 -103 -4 0 -6 9 -4 20 2 11 0 18 -6 15 -5 -4 -9 -1 -9 6 0 7 -3
9 -6 6 -4 -4 -2 -12 3 -19 6 -7 9 -21 7 -31 -1 -13 2 -17 12 -13 8 3 14 1 14
-4 0 -6 -5 -10 -11 -10 -6 0 -7 -5 -2 -12 4 -7 8 -49 8 -93 0 -62 -4 -84 -18
-99 -19 -22 -21 -32 -7 -41 6 -4 7 1 3 11 -5 13 -3 15 7 9 8 -5 11 -4 6 3 -3
6 -3 13 1 15 5 3 8 -28 8 -69 1 -41 -2 -74 -5 -74 -3 0 -6 -9 -6 -19 0 -11 3
-18 6 -16 3 2 5 -82 5 -186 0 -145 -3 -186 -11 -174 -10 14 -12 12 -10 -8 0
-15 6 -23 14 -20 6 3 12 0 12 -6 0 -6 -4 -11 -10 -11 -5 0 -10 -5 -10 -11 0
-5 3 -8 8 -6 4 3 7 -33 7 -79 1 -46 -2 -84 -7 -84 -4 0 -5 9 -3 20 2 11 0 18
-5 15 -4 -3 -7 -13 -5 -23 2 -9 4 -21 4 -25 1 -5 4 -6 9 -4 4 3 7 -23 7 -58 0
-36 -4 -61 -9 -58 -5 4 -6 1 -2 -5 13 -22 16 -55 5 -69 -8 -9 -8 -13 0 -13 6
0 10 -11 9 -25 -2 -23 -3 -23 -22 -7 -18 16 -18 16 -5 -5 8 -13 16 -23 19 -23
3 0 5 -52 6 -115 0 -94 -2 -112 -13 -103 -11 8 -12 7 -7 -6 3 -9 9 -16 13 -16
3 0 6 -97 6 -216 1 -179 -1 -213 -12 -198 -7 10 -13 13 -13 7 0 -7 6 -18 14
-25 14 -14 19 -108 6 -108 -14 0 -20 -32 -10 -48 9 -14 10 -13 5 5 -3 12 -2
24 2 26 5 3 9 -114 9 -259 0 -145 -4 -264 -9 -264 -4 0 -5 6 -1 13 4 6 3 8 -1
4 -15 -14 -15 -39 1 -33 8 3 14 1 14 -3 0 -5 -7 -11 -15 -15 -17 -6 -20 -26
-4 -26 5 0 7 5 4 10 -3 6 -2 10 3 10 4 0 8 -99 8 -220 -1 -121 -5 -220 -9
-220 -5 0 -6 4 -3 8 2 4 0 14 -5 22 -7 11 -8 8 -5 -10 3 -14 5 -29 5 -33 1 -5
5 -6 9 -3 11 7 8 -106 -3 -124 -5 -9 -4 -11 3 -6 7 4 12 2 12 -3 0 -6 -4 -11
-9 -11 -5 0 -12 -7 -15 -16 -5 -13 -3 -14 7 -6 10 9 13 -10 13 -104 -1 -62 -4
-114 -9 -114 -4 0 -5 6 -1 13 4 6 3 8 -1 4 -15 -14 -15 -39 1 -33 8 3 14 1 14
-4 0 -6 -5 -10 -11 -10 -6 0 -7 -5 -2 -12 4 -7 8 -30 8 -50 0 -31 -2 -35 -15
-25 -13 10 -13 10 -3 -4 10 -12 30 -15 88 -14 41 1 75 0 75 -2 0 -2 -10 -8
-22 -13 -17 -6 -18 -9 -6 -9 9 -1 23 6 32 14 15 16 30 21 23 8 -3 -5 -1 -17 4
-28 8 -18 8 -18 6 4 -1 13 4 26 12 29 9 3 11 0 6 -8 -6 -9 -4 -11 6 -4 8 4
100 9 205 9 167 0 191 -2 187 -15 -3 -10 1 -8 12 5 12 14 19 16 22 8 3 -7 9
-13 14 -13 6 0 8 3 6 8 -3 4 111 7 253 7 159 1 256 -3 253 -9 -4 -5 -1 -6 8 0
8 4 100 9 205 9 167 0 191 -2 187 -15 -3 -10 1 -8 12 5 12 14 19 16 22 8 3 -7
9 -13 14 -13 6 0 8 3 6 8 -3 4 111 7 253 7 159 1 256 -3 253 -9 -4 -5 -1 -6 8
0 8 4 100 9 205 9 167 0 191 -2 187 -15 -3 -10 1 -8 12 5 12 14 19 16 22 8 3
-7 9 -13 14 -13 6 0 8 3 6 7 -3 5 75 8 173 8 121 1 177 -3 172 -10 -3 -6 0 -6
9 1 8 6 40 10 71 9 41 -2 56 1 51 9 -4 6 1 5 10 -3 12 -9 21 -10 30 -4 6 6 19
11 27 11 33 2 67 9 80 17 10 6 12 4 7 -8 -3 -9 -1 -19 6 -23 7 -4 9 -4 5 1 -4
4 -3 16 3 27 8 16 13 17 25 7 8 -6 17 -9 21 -5 3 3 0 6 -7 6 -21 0 1 19 26 23
12 1 29 11 39 21 14 14 20 15 26 4 7 -10 9 -9 9 5 0 10 5 15 10 12 6 -4 7 -12
3 -18 -4 -7 0 -6 10 2 19 15 23 26 6 15 -7 -4 -10 -1 -7 7 3 8 12 13 20 11 9
-1 18 7 21 18 3 13 11 18 20 14 8 -3 18 0 23 7 5 8 3 10 -7 4 -8 -5 -3 4 10
18 24 27 49 37 35 15 -4 -7 -3 -8 5 -4 9 6 9 11 -1 24 -10 12 -10 14 0 8 7 -4
12 -2 12 8 0 8 10 22 22 30 12 9 19 16 15 16 -4 0 -2 6 5 14 7 8 17 11 22 8 5
-3 6 0 2 6 -4 6 4 35 18 64 14 29 30 66 35 81 7 18 15 26 23 21 10 -5 10 -4 2
5 -9 9 -8 24 1 56 8 24 10 47 7 51 -4 4 0 5 9 2 9 -4 16 -1 16 8 0 7 -4 11 -9
8 -15 -10 -4 30 12 44 8 8 9 11 3 7 -7 -3 -13 -2 -13 3 0 15 26 33 35 24 5 -4
5 -1 1 6 -5 9 -12 10 -20 3 -9 -8 -12 40 -12 213 1 123 4 222 9 219 4 -2 7 1
7 6 0 6 -4 11 -9 11 -5 0 -8 18 -8 39 1 22 6 37 11 33 5 -3 5 1 0 9 -14 21
-12 180 2 175 6 -2 11 2 11 10 0 8 -6 13 -14 10 -7 -3 -13 -1 -13 4 0 6 6 10
13 10 8 0 8 3 1 8 -12 9 -14 202 -2 202 5 0 7 -4 3 -9 -3 -5 -1 -12 4 -15 11
-7 6 55 -6 63 -12 8 -12 201 -1 201 5 0 7 -4 3 -9 -3 -5 -1 -12 4 -15 11 -7 6
55 -6 63 -12 7 -12 201 0 201 4 0 5 -5 1 -12 -4 -6 -3 -8 4 -4 12 7 8 46 -6
55 -10 8 -9 1001 1 1001 5 0 6 -4 2 -9 -3 -5 -2 -12 3 -15 4 -2 8 8 7 24 0 18
-4 25 -10 20 -7 -6 -10 34 -10 120 0 127 0 128 20 112 18 -16 19 -16 6 0 -7 9
-10 22 -6 27 3 6 0 9 -7 6 -11 -4 -13 12 -13 76 1 67 -2 85 -19 107 -11 14
-14 22 -7 17 10 -5 12 -4 7 3 -4 7 -12 12 -18 12 -14 0 -234 222 -230 232 1 5
-3 8 -8 8 -6 0 -23 12 -38 26 -15 15 -21 23 -13 19 9 -5 12 -4 7 3 -4 7 -12
12 -18 12 -17 0 -100 88 -94 99 4 5 1 13 -5 17 -8 4 -9 3 -5 -4 12 -20 -6 -13
-25 9 -10 12 -16 25 -14 30 3 4 0 11 -6 15 -8 5 -9 3 -4 -6 5 -8 3 -11 -6 -8
-8 3 -13 11 -12 17 2 6 -1 11 -7 11 -15 0 -50 33 -44 42 3 5 1 7 -3 6 -14 -4
-196 180 -189 191 4 5 1 13 -5 17 -8 4 -9 3 -5 -4 12 -20 -6 -13 -25 9 -10 12
-16 25 -14 30 3 4 0 11 -6 15 -8 5 -9 3 -4 -6 5 -8 3 -11 -6 -8 -8 3 -13 11
-12 17 2 6 -1 11 -7 11 -15 0 -50 33 -44 42 3 5 1 7 -3 6 -14 -4 -94 80 -96
101 0 10 -7 18 -14 18 -7 0 -9 -5 -5 -12 4 -6 -2 -2 -13 10 -28 29 -61 53 -51
38 9 -16 1 -16 -26 -2 -11 6 -18 7 -15 2 3 -5 -14 -9 -39 -9 -50 1 -53 3 -21
16 16 6 17 9 5 9 -9 1 -23 -5 -31 -13 -11 -11 -17 -12 -27 -3 -7 7 -10 8 -7 2
3 -6 -24 -10 -73 -11 -68 0 -76 2 -62 14 15 11 13 11 -8 1 -27 -14 -82 -21
-76 -10 3 4 -4 7 -15 7 -10 0 -19 -3 -19 -6 0 -9 -544 -5 -559 4 -9 6 -12 5
-8 -1 4 -6 -3 -10 -16 -9 -15 1 -21 7 -19 19 2 9 0 17 -3 17 -3 0 -5 -4 -5 -9z
m-915 -21 c3 -5 1 -10 -4 -10 -6 0 -11 5 -11 10 0 6 2 10 4 10 3 0 8 -4 11
-10z m-685 -645 c-9 -11 -9 -15 -1 -15 7 0 9 -4 6 -10 -9 -14 -24 -12 -21 3 2
15 15 37 23 37 3 0 0 -7 -7 -15z m3695 -1875 c3 -5 1 -10 -4 -10 -6 0 -11 5
-11 10 0 6 2 10 4 10 3 0 8 -4 11 -10z m0 -240 c3 -5 1 -10 -4 -10 -6 0 -11 5
-11 10 0 6 2 10 4 10 3 0 8 -4 11 -10z m0 -240 c3 -5 1 -10 -4 -10 -6 0 -11 5
-11 10 0 6 2 10 4 10 3 0 8 -4 11 -10z"/>
<path d="M2436 4907 c3 -10 9 -15 12 -12 3 3 0 11 -7 18 -10 9 -11 8 -5 -6z"/>
<path d="M2488 4913 c6 -2 10 -8 8 -12 -3 -4 1 -8 9 -8 11 0 12 4 4 14 -6 7
-17 13 -23 12 -7 0 -6 -2 2 -6z"/>
<path d="M2636 4907 c3 -10 9 -15 12 -12 3 3 0 11 -7 18 -10 9 -11 8 -5 -6z"/>
<path d="M3073 4905 c0 -8 4 -12 9 -9 5 3 6 10 3 15 -9 13 -12 11 -12 -6z"/>
<path d="M3275 4910 c-3 -5 -1 -10 4 -10 6 0 11 5 11 10 0 6 -2 10 -4 10 -3 0
-8 -4 -11 -10z"/>
<path d="M3369 4897 c25 -27 43 -39 22 -14 -6 8 -7 18 -3 23 4 5 3 6 -2 2 -5
-4 -16 -2 -25 4 -9 7 -5 0 8 -15z"/>
<path d="M1536 4898 c3 -5 10 -6 15 -3 13 9 11 12 -6 12 -8 0 -12 -4 -9 -9z"/>
<path d="M2160 4900 c-9 -6 -10 -10 -3 -10 6 0 15 5 18 10 8 12 4 12 -15 0z"/>
<path d="M2705 4899 c5 -7 52 -6 59 2 3 2 -10 5 -29 5 -18 0 -32 -3 -30 -7z"/>
<path d="M2825 4900 c-3 -6 1 -7 9 -4 18 7 21 14 7 14 -6 0 -13 -4 -16 -10z"/>
<path d="M1255 4891 c-3 -5 -2 -12 3 -15 5 -3 9 1 9 9 0 17 -3 19 -12 6z"/>
<path d="M1310 4896 c0 -2 7 -7 16 -10 8 -3 12 -2 9 4 -6 10 -25 14 -25 6z"/>
<path d="M1184 4879 c-4 -7 -3 -9 4 -5 5 3 13 0 15 -6 4 -9 6 -10 6 -1 1 17
-16 25 -25 12z"/>
<path d="M1230 4881 c0 -6 4 -13 10 -16 6 -3 7 1 4 9 -7 18 -14 21 -14 7z"/>
<path d="M3486 4798 c3 -5 10 -6 15 -3 13 9 11 12 -6 12 -8 0 -12 -4 -9 -9z"/>
<path d="M995 4780 c-3 -5 -1 -10 4 -10 6 0 11 5 11 10 0 6 -2 10 -4 10 -3 0
-8 -4 -11 -10z"/>
<path d="M3513 4766 c0 -15 22 -15 34 0 4 5 4 6 -1 2 -5 -4 -14 -3 -21 2 -8 7
-12 5 -12 -4z"/>
<path d="M950 4740 c0 -5 5 -10 11 -10 5 0 7 5 4 10 -3 6 -8 10 -11 10 -2 0
-4 -4 -4 -10z"/>
<path d="M893 4685 c0 -8 4 -12 9 -9 5 3 6 10 3 15 -9 13 -12 11 -12 -6z"/>
<path d="M3697 4595 c-4 -8 -3 -16 1 -19 4 -3 9 4 9 15 2 23 -3 25 -10 4z"/>
<path d="M783 4534 c-13 -14 -18 -24 -11 -22 10 4 45 48 37 48 -2 0 -14 -12
-26 -26z"/>
<path d="M3750 4518 c0 -4 6 -8 14 -8 8 0 17 4 20 8 2 4 -4 8 -15 8 -10 0 -19
-4 -19 -8z"/>
<path d="M3766 4488 c3 -5 10 -6 15 -3 13 9 11 12 -6 12 -8 0 -12 -4 -9 -9z"/>
<path d="M3833 4446 c0 -15 22 -15 34 0 4 5 4 6 -1 2 -5 -4 -14 -3 -21 2 -8 7
-12 5 -12 -4z"/>
<path d="M726 4442 c-3 -5 1 -9 9 -9 8 0 15 4 15 9 0 4 -4 8 -9 8 -6 0 -12 -4
-15 -8z"/>
<path d="M696 4373 c-6 -14 -5 -15 5 -6 7 7 10 15 7 18 -3 3 -9 -2 -12 -12z"/>
<path d="M701 4314 c0 -11 3 -14 6 -6 3 7 2 16 -1 19 -3 4 -6 -2 -5 -13z"/>
<path d="M4017 4275 c-4 -8 -3 -16 1 -19 4 -3 9 4 9 15 2 23 -3 25 -10 4z"/>
<path d="M4070 4205 c0 -7 30 -13 34 -7 3 4 -4 9 -15 9 -10 1 -19 0 -19 -2z"/>
<path d="M680 4191 c0 -6 4 -13 10 -16 6 -3 7 1 4 9 -7 18 -14 21 -14 7z"/>
<path d="M670 4161 c0 -6 4 -13 10 -16 6 -3 7 1 4 9 -7 18 -14 21 -14 7z"/>
<path d="M4177 4115 c-4 -8 -3 -16 1 -19 4 -3 9 4 9 15 2 23 -3 25 -10 4z"/>
<path d="M666 4038 c3 -5 10 -6 15 -3 13 9 11 12 -6 12 -8 0 -12 -4 -9 -9z"/>
<path d="M4230 4038 c0 -4 6 -8 14 -8 8 0 17 4 20 8 2 4 -4 8 -15 8 -10 0 -19
-4 -19 -8z"/>
<path d="M4246 4008 c3 -5 10 -6 15 -3 13 9 11 12 -6 12 -8 0 -12 -4 -9 -9z"/>
<path d="M688 3996 c4 -6 7 -14 7 -18 0 -19 11 -14 11 6 0 12 -6 23 -13 23 -6
0 -9 -5 -5 -11z"/>
<path d="M4310 3977 c0 -2 6 -10 14 -16 11 -9 16 -9 22 1 4 7 4 10 -1 6 -4 -4
-14 -3 -22 3 -7 6 -13 9 -13 6z"/>
<path d="M4402 3850 c7 -10 14 -18 15 -16 6 6 -9 36 -18 36 -5 0 -4 -9 3 -20z"/>
<path d="M684 3742 c23 -26 23 -26 23 -7 0 8 -3 13 -5 10 -3 -3 -12 1 -21 7
-10 8 -9 4 3 -10z"/>
<path d="M4420 3731 c0 -6 4 -13 10 -16 6 -3 7 1 4 9 -7 18 -14 21 -14 7z"/>
<path d="M680 3691 c0 -6 4 -13 10 -16 6 -3 7 1 4 9 -7 18 -14 21 -14 7z"/>
<path d="M684 3638 l-19 -23 23 19 c21 18 27 26 19 26 -2 0 -12 -10 -23 -22z"/>
<path d="M4415 3560 c-4 -6 -1 -9 7 -8 7 2 12 -3 10 -10 -1 -8 2 -11 8 -7 8 5
7 11 -1 21 -14 17 -16 17 -24 4z"/>
<path d="M680 3535 c-7 -9 -11 -17 -9 -20 3 -2 10 5 17 15 14 24 10 26 -8 5z"/>
<path d="M4415 3440 c-3 -5 -1 -10 4 -10 6 0 11 5 11 10 0 6 -2 10 -4 10 -3 0
-8 -4 -11 -10z"/>
<path d="M675 3410 c-3 -6 1 -7 9 -4 18 7 21 14 7 14 -6 0 -13 -4 -16 -10z"/>
<path d="M681 3376 c-9 -11 -9 -16 1 -22 7 -4 10 -4 6 1 -4 4 -3 14 3 22 6 7
9 13 6 13 -2 0 -10 -6 -16 -14z"/>
<path d="M4434 3342 c3 -5 0 -12 -6 -15 -7 -2 -10 -7 -7 -11 3 -4 12 0 18 8 9
11 9 16 0 22 -7 4 -9 3 -5 -4z"/>
<path d="M675 3330 c-3 -6 1 -7 9 -4 18 7 21 14 7 14 -6 0 -13 -4 -16 -10z"/>
<path d="M681 3296 c-9 -11 -9 -16 1 -22 7 -4 10 -4 6 1 -4 4 -3 14 3 22 6 7
9 13 6 13 -2 0 -10 -6 -16 -14z"/>
<path d="M693 3208 c1 -15 6 -23 11 -18 4 4 4 16 -2 26 -9 16 -10 14 -9 -8z"/>
<path d="M4430 3190 c-9 -6 -10 -10 -3 -10 6 0 15 5 18 10 8 12 4 12 -15 0z"/>
<path d="M690 3160 c-9 -6 -10 -10 -3 -10 6 0 15 5 18 10 8 12 4 12 -15 0z"/>
<path d="M4415 3129 c-4 -6 -5 -12 -2 -15 2 -3 7 2 10 11 7 17 1 20 -8 4z"/>
<path d="M693 2965 c0 -8 4 -12 9 -9 5 3 6 10 3 15 -9 13 -12 11 -12 -6z"/>
<path d="M4430 2950 c-9 -6 -10 -10 -3 -10 6 0 15 5 18 10 8 12 4 12 -15 0z"/>
<path d="M4430 2921 c0 -6 4 -13 10 -16 6 -3 7 1 4 9 -7 18 -14 21 -14 7z"/>
<path d="M4415 2889 c-4 -6 -5 -12 -2 -15 2 -3 7 2 10 11 7 17 1 20 -8 4z"/>
<path d="M680 2831 c0 -6 4 -13 10 -16 6 -3 7 1 4 9 -7 18 -14 21 -14 7z"/>
<path d="M4410 2811 c0 -6 4 -13 10 -16 6 -3 7 1 4 9 -7 18 -14 21 -14 7z"/>
<path d="M676 2701 c-3 -5 1 -14 8 -20 10 -9 16 -9 21 -1 4 6 1 9 -7 8 -7 -2
-12 3 -10 10 2 14 -4 16 -12 3z"/>
<path d="M4424 2690 c0 -13 4 -16 10 -10 7 7 7 13 0 20 -6 6 -10 3 -10 -10z"/>
<path d="M4415 2649 c-4 -6 -5 -12 -2 -15 2 -3 7 2 10 11 7 17 1 20 -8 4z"/>
<path d="M4416 2598 c3 -4 11 -5 19 -1 21 7 19 12 -4 10 -11 0 -18 -5 -15 -9z"/>
<path d="M679 2533 c-13 -16 -12 -17 4 -4 9 7 17 15 17 17 0 8 -8 3 -21 -13z"/>
<path d="M4410 2491 c0 -6 4 -13 10 -16 6 -3 7 1 4 9 -7 18 -14 21 -14 7z"/>
<path d="M685 2480 c-3 -5 -1 -10 4 -10 6 0 11 5 11 10 0 6 -2 10 -4 10 -3 0
-8 -4 -11 -10z"/>
<path d="M690 2419 c0 -5 5 -7 10 -4 6 3 10 8 10 11 0 2 -4 4 -10 4 -5 0 -10
-5 -10 -11z"/>
<path d="M4410 2406 c0 -2 7 -7 16 -10 8 -3 12 -2 9 4 -6 10 -25 14 -25 6z"/>
<path d="M4415 2300 c-3 -5 -1 -10 4 -10 6 0 11 5 11 10 0 6 -2 10 -4 10 -3 0
-8 -4 -11 -10z"/>
<path d="M4415 2260 c-3 -5 -1 -10 4 -10 6 0 11 5 11 10 0 6 -2 10 -4 10 -3 0
-8 -4 -11 -10z"/>
<path d="M4417 2213 c-10 -9 -9 -23 1 -23 5 0 9 7 9 15 0 17 -1 18 -10 8z"/>
<path d="M680 2200 c-12 -7 -10 -9 7 -7 12 0 19 5 17 9 -6 10 -6 10 -24 -2z"/>
<path d="M696 2153 c-6 -14 -5 -15 5 -6 7 7 10 15 7 18 -3 3 -9 -2 -12 -12z"/>
<path d="M684 2119 c-3 -6 -2 -15 3 -20 5 -5 9 -1 9 11 0 23 -2 24 -12 9z"/>
<path d="M4415 2060 c-3 -5 -1 -10 4 -10 6 0 11 5 11 10 0 6 -2 10 -4 10 -3 0
-8 -4 -11 -10z"/>
<path d="M4415 2020 c-3 -5 -1 -10 4 -10 6 0 11 5 11 10 0 6 -2 10 -4 10 -3 0
-8 -4 -11 -10z"/>
<path d="M696 1997 c3 -10 9 -15 12 -12 3 3 0 11 -7 18 -10 9 -11 8 -5 -6z"/>
<path d="M4417 1973 c-10 -9 -9 -23 1 -23 5 0 9 7 9 15 0 17 -1 18 -10 8z"/>
<path d="M687 1879 c7 -7 15 -10 18 -7 3 3 -2 9 -12 12 -14 6 -15 5 -6 -5z"/>
<path d="M694 1840 c0 -13 4 -16 10 -10 7 7 7 13 0 20 -6 6 -10 3 -10 -10z"/>
<path d="M4415 1820 c-3 -5 -1 -10 4 -10 6 0 11 5 11 10 0 6 -2 10 -4 10 -3 0
-8 -4 -11 -10z"/>
<path d="M4415 1780 c-3 -5 -1 -10 4 -10 6 0 11 5 11 10 0 6 -2 10 -4 10 -3 0
-8 -4 -11 -10z"/>
<path d="M670 1736 c0 -2 8 -10 18 -17 15 -13 16 -12 3 4 -13 16 -21 21 -21
13z"/>
<path d="M4417 1733 c-10 -9 -9 -23 1 -23 5 0 9 7 9 15 0 17 -1 18 -10 8z"/>
<path d="M679 1633 c-12 -16 -12 -17 2 -6 9 7 19 10 22 6 4 -3 7 -1 7 5 0 17
-16 15 -31 -5z"/>
<path d="M690 1603 c0 -5 5 -15 10 -23 7 -12 9 -10 7 8 -1 19 -17 33 -17 15z"/>
<path d="M4415 1580 c-3 -5 -1 -10 4 -10 6 0 11 5 11 10 0 6 -2 10 -4 10 -3 0
-8 -4 -11 -10z"/>
<path d="M670 1576 c0 -2 8 -10 18 -17 15 -13 16 -12 3 4 -13 16 -21 21 -21
13z"/>
<path d="M4415 1540 c-3 -5 -1 -10 4 -10 6 0 11 5 11 10 0 6 -2 10 -4 10 -3 0
-8 -4 -11 -10z"/>
<path d="M4417 1493 c-10 -9 -9 -23 1 -23 5 0 9 7 9 15 0 17 -1 18 -10 8z"/>
<path d="M679 1473 c-12 -16 -12 -17 2 -6 9 7 19 10 22 6 4 -3 7 -1 7 5 0 17
-16 15 -31 -5z"/>
<path d="M4435 1450 c-3 -5 -3 -10 2 -10 4 0 1 -5 -7 -11 -12 -8 -12 -10 -1
-7 8 2 15 12 17 21 3 19 -2 22 -11 7z"/>
<path d="M690 1443 c0 -5 5 -15 10 -23 7 -12 9 -10 7 8 -1 19 -17 33 -17 15z"/>
<path d="M670 1416 c0 -2 8 -10 18 -17 15 -13 16 -12 3 4 -13 16 -21 21 -21
13z"/>
<path d="M679 1313 c-12 -16 -12 -17 2 -6 9 7 19 10 22 6 4 -3 7 -1 7 5 0 17
-16 15 -31 -5z"/>
<path d="M4416 1318 c3 -5 10 -6 15 -3 13 9 11 12 -6 12 -8 0 -12 -4 -9 -9z"/>
<path d="M670 1276 c4 -4 16 -4 26 2 16 9 14 10 -8 9 -15 -1 -23 -6 -18 -11z"/>
<path d="M4415 1260 c-3 -5 -1 -10 4 -10 6 0 11 5 11 10 0 6 -2 10 -4 10 -3 0
-8 -4 -11 -10z"/>
<path d="M4415 1220 c3 -5 8 -10 11 -10 2 0 4 5 4 10 0 6 -5 10 -11 10 -5 0
-7 -4 -4 -10z"/>
<path d="M4414 1175 c0 -13 4 -21 10 -18 6 4 7 -1 2 -13 -6 -15 -5 -16 5 -7
10 10 9 16 -2 29 -8 9 -12 19 -11 21 2 3 2 6 0 9 -2 2 -4 -7 -4 -21z"/>
<path d="M694 1160 c0 -13 4 -16 10 -10 7 7 7 13 0 20 -6 6 -10 3 -10 -10z"/>
<path d="M4415 1111 c-3 -5 -2 -12 3 -15 5 -3 9 1 9 9 0 17 -3 19 -12 6z"/>
<path d="M4414 1056 c0 -12 6 -23 13 -23 9 0 10 4 3 12 -5 7 -7 14 -4 17 3 3
1 8 -3 11 -5 3 -9 -5 -9 -17z"/>
<path d="M690 1011 c0 -6 4 -13 10 -16 6 -3 7 1 4 9 -7 18 -14 21 -14 7z"/>
<path d="M4416 998 c3 -4 11 -5 19 -1 21 7 19 12 -4 10 -11 0 -18 -5 -15 -9z"/>
<path d="M685 980 c10 -11 20 -20 23 -20 3 0 -3 9 -13 20 -10 11 -20 20 -23
20 -3 0 3 -9 13 -20z"/>
<path d="M4410 966 c0 -8 4 -17 9 -20 5 -4 7 3 4 14 -6 23 -13 26 -13 6z"/>
<path d="M679 933 c-13 -16 -12 -17 4 -4 9 7 17 15 17 17 0 8 -8 3 -21 -13z"/>
<path d="M691 884 c0 -11 3 -14 6 -6 3 7 2 16 -1 19 -3 4 -6 -2 -5 -13z"/>
<path d="M4415 860 c-3 -5 -1 -10 4 -10 6 0 11 5 11 10 0 6 -2 10 -4 10 -3 0
-8 -4 -11 -10z"/>
<path d="M4393 770 c1 -21 10 -18 13 5 1 8 -2 15 -6 15 -5 0 -8 -9 -7 -20z"/>
<path d="M679 693 c-13 -16 -12 -17 4 -4 9 7 17 15 17 17 0 8 -8 3 -21 -13z"/>
<path d="M4361 676 c-9 -11 -9 -16 1 -22 7 -4 10 -4 6 1 -4 4 -3 14 3 22 6 7
9 13 6 13 -2 0 -10 -6 -16 -14z"/>
<path d="M4350 630 c-9 -6 -10 -10 -3 -10 6 0 15 5 18 10 8 12 4 12 -15 0z"/>
<path d="M4310 581 c0 -6 4 -12 8 -15 5 -3 9 1 9 9 0 8 -4 15 -9 15 -4 0 -8
-4 -8 -9z"/>
<path d="M696 535 c-9 -26 -7 -32 5 -12 6 10 9 21 6 23 -2 3 -7 -2 -11 -11z"/>
<path d="M4310 536 c0 -2 8 -10 18 -17 15 -13 16 -12 3 4 -13 16 -21 21 -21
13z"/>
<path d="M4276 495 c-11 -8 -15 -15 -9 -15 6 0 16 7 23 15 16 19 11 19 -14 0z"/>
<path d="M690 491 c0 -6 4 -13 10 -16 6 -3 7 1 4 9 -7 18 -14 21 -14 7z"/>
<path d="M685 440 c-3 -5 -1 -10 4 -10 6 0 11 5 11 10 0 6 -2 10 -4 10 -3 0
-8 -4 -11 -10z"/>
<path d="M4190 400 c0 -5 5 -10 10 -10 6 0 10 5 10 10 0 6 -4 10 -10 10 -5 0
-10 -4 -10 -10z"/>
<path d="M4149 343 c-13 -16 -12 -17 4 -4 16 13 21 21 13 21 -2 0 -10 -8 -17
-17z"/>
<path d="M687 319 c7 -7 15 -10 18 -7 3 3 -2 9 -12 12 -14 6 -15 5 -6 -5z"/>
<path d="M4036 293 c-6 -14 -5 -15 5 -6 7 7 10 15 7 18 -3 3 -9 -2 -12 -12z"/>
<path d="M680 291 c0 -10 19 -25 25 -20 1 2 -3 10 -11 17 -8 7 -14 8 -14 3z"/>
<path d="M3948 243 c6 -2 9 -10 6 -15 -4 -7 -2 -8 5 -4 13 9 5 26 -12 25 -9 0
-8 -2 1 -6z"/>
<path d="M770 222 c0 -4 10 -9 22 -9 18 -2 20 0 8 7 -18 12 -30 13 -30 2z"/>
<path d="M1086 222 c-3 -5 1 -9 9 -9 8 0 12 4 9 9 -3 4 -7 8 -9 8 -2 0 -6 -4
-9 -8z"/>
<path d="M1186 221 c-3 -4 4 -7 14 -6 27 2 33 10 10 12 -11 1 -22 -2 -24 -6z"/>
<path d="M1566 222 c-3 -5 1 -9 9 -9 8 0 12 4 9 9 -3 4 -7 8 -9 8 -2 0 -6 -4
-9 -8z"/>
<path d="M1605 221 c3 -3 17 -6 31 -7 13 0 22 2 19 5 -3 3 -17 6 -31 7 -13 0
-22 -2 -19 -5z"/>
<path d="M1670 221 c0 -6 4 -13 10 -16 6 -3 7 1 4 9 -7 18 -14 21 -14 7z"/>
<path d="M1715 219 c-3 -4 2 -6 10 -5 21 3 28 13 10 13 -9 0 -18 -4 -20 -8z"/>
<path d="M1766 218 c3 -5 10 -6 15 -3 13 9 11 12 -6 12 -8 0 -12 -4 -9 -9z"/>
<path d="M1830 220 c0 -6 4 -9 9 -5 5 3 12 -2 14 -10 4 -12 5 -12 3 1 -1 19
-26 32 -26 14z"/>
<path d="M2046 222 c-3 -5 1 -9 9 -9 8 0 12 4 9 9 -3 4 -7 8 -9 8 -2 0 -6 -4
-9 -8z"/>
<path d="M2146 221 c-3 -4 4 -7 14 -6 27 2 33 10 10 12 -11 1 -22 -2 -24 -6z"/>
<path d="M2526 222 c-3 -5 1 -9 9 -9 8 0 12 4 9 9 -3 4 -7 8 -9 8 -2 0 -6 -4
-9 -8z"/>
<path d="M2565 221 c3 -3 17 -6 31 -7 13 0 22 2 19 5 -3 3 -17 6 -31 7 -13 0
-22 -2 -19 -5z"/>
<path d="M2630 221 c0 -6 4 -13 10 -16 6 -3 7 1 4 9 -7 18 -14 21 -14 7z"/>
<path d="M2675 219 c-3 -4 2 -6 10 -5 21 3 28 13 10 13 -9 0 -18 -4 -20 -8z"/>
<path d="M2726 218 c3 -5 10 -6 15 -3 13 9 11 12 -6 12 -8 0 -12 -4 -9 -9z"/>
<path d="M2790 220 c0 -6 4 -9 9 -5 5 3 12 -2 14 -10 4 -12 5 -12 3 1 -1 19
-26 32 -26 14z"/>
<path d="M3006 222 c-3 -5 1 -9 9 -9 8 0 12 4 9 9 -3 4 -7 8 -9 8 -2 0 -6 -4
-9 -8z"/>
<path d="M3106 221 c-3 -4 4 -7 14 -6 27 2 33 10 10 12 -11 1 -22 -2 -24 -6z"/>
<path d="M3486 222 c-3 -5 1 -9 9 -9 8 0 12 4 9 9 -3 4 -7 8 -9 8 -2 0 -6 -4
-9 -8z"/>
<path d="M3526 218 c3 -5 10 -6 15 -3 13 9 11 12 -6 12 -8 0 -12 -4 -9 -9z"/>
<path d="M3590 220 c0 -5 6 -9 13 -7 6 1 11 -3 10 -10 -2 -7 4 -10 12 -6 13 5
13 7 -2 19 -22 16 -33 18 -33 4z"/>
<path d="M3835 220 c-3 -5 -1 -10 4 -10 6 0 11 5 11 10 0 6 -2 10 -4 10 -3 0
-8 -4 -11 -10z"/>
<path d="M972 211 c-8 -4 -24 -7 -38 -5 -13 1 -22 -1 -19 -6 6 -10 55 -4 68 9
13 13 7 14 -11 2z"/>
<path d="M1049 203 c-13 -16 -12 -17 4 -4 16 13 21 21 13 21 -2 0 -10 -8 -17
-17z"/>
<path d="M1290 211 c0 -6 4 -13 10 -16 6 -3 7 1 4 9 -7 18 -14 21 -14 7z"/>
<path d="M1450 210 c-9 -6 -10 -10 -3 -10 6 0 15 5 18 10 8 12 4 12 -15 0z"/>
<path d="M1529 203 c-13 -16 -12 -17 4 -4 16 13 21 21 13 21 -2 0 -10 -8 -17
-17z"/>
<path d="M1932 211 c-8 -4 -24 -7 -38 -5 -13 1 -22 -1 -19 -6 6 -10 55 -4 68
9 13 13 7 14 -11 2z"/>
<path d="M2009 203 c-13 -16 -12 -17 4 -4 16 13 21 21 13 21 -2 0 -10 -8 -17
-17z"/>
<path d="M2250 211 c0 -6 4 -13 10 -16 6 -3 7 1 4 9 -7 18 -14 21 -14 7z"/>
<path d="M2410 210 c-9 -6 -10 -10 -3 -10 6 0 15 5 18 10 8 12 4 12 -15 0z"/>
<path d="M2489 203 c-13 -16 -12 -17 4 -4 9 7 17 15 17 17 0 8 -8 3 -21 -13z"/>
<path d="M2892 211 c-8 -4 -24 -7 -38 -5 -13 1 -22 -1 -19 -6 6 -10 55 -4 68
9 13 13 7 14 -11 2z"/>
<path d="M2969 203 c-13 -16 -12 -17 4 -4 16 13 21 21 13 21 -2 0 -10 -8 -17
-17z"/>
<path d="M3210 211 c0 -6 4 -13 10 -16 6 -3 7 1 4 9 -7 18 -14 21 -14 7z"/>
<path d="M3370 210 c-9 -6 -10 -10 -3 -10 6 0 15 5 18 10 8 12 4 12 -15 0z"/>
<path d="M3449 203 c-13 -16 -12 -17 4 -4 16 13 21 21 13 21 -2 0 -10 -8 -17
-17z"/>
<path d="M1350 199 c0 -5 5 -7 10 -4 6 3 10 8 10 11 0 2 -4 4 -10 4 -5 0 -10
-5 -10 -11z"/>
<path d="M1415 200 c3 -5 8 -10 11 -10 2 0 4 5 4 10 0 6 -5 10 -11 10 -5 0 -7
-4 -4 -10z"/>
<path d="M2310 199 c0 -5 5 -7 10 -4 6 3 10 8 10 11 0 2 -4 4 -10 4 -5 0 -10
-5 -10 -11z"/>
<path d="M2375 200 c3 -5 8 -10 11 -10 2 0 4 5 4 10 0 6 -5 10 -11 10 -5 0 -7
-4 -4 -10z"/>
<path d="M3270 199 c0 -5 5 -7 10 -4 6 3 10 8 10 11 0 2 -4 4 -10 4 -5 0 -10
-5 -10 -11z"/>
<path d="M3335 200 c3 -5 8 -10 11 -10 2 0 4 5 4 10 0 6 -5 10 -11 10 -5 0 -7
-4 -4 -10z"/>
<path d="M3650 199 c0 -5 5 -7 10 -4 6 3 10 8 10 11 0 2 -4 4 -10 4 -5 0 -10
-5 -10 -11z"/>
</g>
</svg>
